<svg fill="#46a96a" viewBox="0 0 150 150" xmlns="http://www.w3.org/2000/svg"><path d="m82.26 140h-14.52a1 1 0 0 1 -.983-.813l-2.845-14.936a50.213 50.213 0 0 1 -8.885-2.893l-11.087 10.416a1 1 0 0 1 -1.272.08l-11.748-8.535a1 1 0 0 1 -.317-1.235l6.482-13.764a50.617 50.617 0 0 1 -5.487-7.557l-15.1 1.912a1 1 0 0 1 -1.077-.683l-4.483-13.811a1 1 0 0 1 .469-1.181l13.332-7.324c-.145-1.563-.218-3.131-.218-4.672s.073-3.109.218-4.671l-13.332-7.328a1 1 0 0 1 -.469-1.186l4.487-13.81a.991.991 0 0 1 1.077-.683l15.1 1.911a50.759 50.759 0 0 1 5.487-7.557l-6.489-13.763a1 1 0 0 1 .317-1.235l11.748-8.536a1 1 0 0 1 1.272.081l11.089 10.416a50.115 50.115 0 0 1 8.886-2.893l2.845-14.937a1 1 0 0 1 .983-.813h14.52a1 1 0 0 1 .983.813l2.845 14.937a50.115 50.115 0 0 1 8.886 2.893l11.086-10.416a1 1 0 0 1 1.272-.081l11.748 8.536a1 1 0 0 1 .317 1.235l-6.481 13.763a50.773 50.773 0 0 1 5.486 7.557l15.1-1.911a1 1 0 0 1 1.076.683l4.487 13.81a1 1 0 0 1 -.469 1.186l-13.331 7.324c.144 1.564.217 3.132.217 4.671s-.073 3.108-.217 4.672l13.328 7.328a1 1 0 0 1 .469 1.185l-4.487 13.811a1 1 0 0 1 -1.076.683l-15.1-1.912a50.734 50.734 0 0 1 -5.486 7.557l6.481 13.764a1 1 0 0 1 -.317 1.235l-11.748 8.535a1 1 0 0 1 -1.272-.08l-11.083-10.42a50.2 50.2 0 0 1 -8.886 2.893l-2.845 14.936a1 1 0 0 1 -.983.813zm-13.693-2h12.866l2.814-14.772a1 1 0 0 1 .777-.792 48.266 48.266 0 0 0 9.745-3.172 1 1 0 0 1 1.093.183l10.964 10.3 10.409-7.563-6.41-13.613a1 1 0 0 1 .163-1.095 48.814 48.814 0 0 0 6.019-8.291 1 1 0 0 1 .993-.485l14.931 1.89 3.976-12.236-13.187-7.247a1 1 0 0 1 -.513-.981 48.428 48.428 0 0 0 0-10.251 1 1 0 0 1 .513-.981l13.185-7.244-3.976-12.236-14.929 1.886a1 1 0 0 1 -.991-.492 48.8 48.8 0 0 0 -6.019-8.29 1 1 0 0 1 -.163-1.1l6.41-13.613-10.409-7.562-10.964 10.3a1 1 0 0 1 -1.093.184 48.269 48.269 0 0 0 -9.745-3.173 1 1 0 0 1 -.777-.791l-2.816-14.763h-12.866l-2.814 14.773a1 1 0 0 1 -.777.791 48.24 48.24 0 0 0 -9.744 3.173 1 1 0 0 1 -1.093-.184l-10.965-10.3-10.409 7.56 6.411 13.613a1 1 0 0 1 -.163 1.1 48.692 48.692 0 0 0 -6.02 8.29 1 1 0 0 1 -.993.484l-14.93-1.89-3.97 12.24 13.18 7.244a1 1 0 0 1 .513.981 48.418 48.418 0 0 0 0 10.25 1 1 0 0 1 -.513.982l-13.18 7.243 3.977 12.236 14.923-1.886a1 1 0 0 1 .991.492 48.692 48.692 0 0 0 6.02 8.29 1 1 0 0 1 .163 1.1l-6.411 13.613 10.409 7.563 10.965-10.3a1 1 0 0 1 1.093-.183 48.278 48.278 0 0 0 9.744 3.172 1 1 0 0 1 .777.792z"/><path d="m75 116.333a41.333 41.333 0 1 1 41.333-41.333 41.379 41.379 0 0 1 -41.333 41.333zm0-80.666a39.333 39.333 0 1 0 39.333 39.333 39.378 39.378 0 0 0 -39.333-39.333z"/><path d="m75 45.579a1 1 0 0 1 -1-1v-3.931a1 1 0 1 1 2 0v3.931a1 1 0 0 1 -1 1z"/><path d="m59.79 49.655a1 1 0 0 1 -.867-.5l-1.965-3.4a1 1 0 0 1 1.732-1l1.966 3.4a1 1 0 0 1 -.866 1.5z"/><path d="m48.654 60.79a.992.992 0 0 1 -.5-.134l-3.4-1.966a1 1 0 0 1 1-1.732l3.4 1.965a1 1 0 0 1 -.5 1.867z"/><path d="m44.579 76h-3.931a1 1 0 1 1 0-2h3.931a1 1 0 1 1 0 2z"/><path d="m45.252 93.176a1 1 0 0 1 -.5-1.866l3.4-1.965a1 1 0 1 1 1 1.732l-3.4 1.965a1 1 0 0 1 -.5.134z"/><path d="m57.823 105.75a1 1 0 0 1 -.865-1.5l1.966-3.4a1 1 0 1 1 1.732 1l-1.965 3.4a1 1 0 0 1 -.868.5z"/><path d="m75 110.352a1 1 0 0 1 -1-1v-3.931a1 1 0 1 1 2 0v3.931a1 1 0 0 1 -1 1z"/><path d="m92.177 105.75a1 1 0 0 1 -.867-.5l-1.966-3.4a1 1 0 1 1 1.733-1l1.965 3.4a1 1 0 0 1 -.865 1.5z"/><path d="m104.749 93.176a.992.992 0 0 1 -.5-.134l-3.405-1.965a1 1 0 0 1 1-1.733l3.405 1.966a1 1 0 0 1 -.5 1.866z"/><path d="m109.352 76h-3.931a1 1 0 1 1 0-2h3.931a1 1 0 0 1 0 2z"/><path d="m101.346 60.79a1 1 0 0 1 -.5-1.867l3.405-1.965a1 1 0 1 1 1 1.732l-3.405 1.966a.992.992 0 0 1 -.5.134z"/><path d="m90.21 49.655a1 1 0 0 1 -.866-1.5l1.966-3.405a1 1 0 1 1 1.732 1l-1.965 3.405a1 1 0 0 1 -.867.5z"/><path d="m90.556 76h-11.967a1 1 0 0 1 0-2h11.967a1 1 0 0 1 0 2z"/><path d="m74.056 72.545a1 1 0 0 1 -.964-.738l-6.235-22.887a1 1 0 1 1 1.93-.525l6.234 22.887a1 1 0 0 1 -.965 1.263z"/><path d="m75 79.589a4.585 4.585 0 0 1 -1.2-9.01 4.081 4.081 0 0 1 1.2-.168 4.589 4.589 0 0 1 0 9.178zm0-7.178a2.17 2.17 0 0 0 -.646.089 2.565 2.565 0 1 0 .646-.089z"/></svg>